<mxfile host="app.diagrams.net" modified="2024-03-07T17:20:42.604Z" agent="Mozilla/5.0 (Macintosh; Intel Mac OS X 10_15_7) AppleWebKit/537.36 (KHTML, like Gecko) Chrome/122.0.0.0 Safari/537.36" etag="aKJuAS3NWBi05ywCj0JG" version="24.0.2" type="device">
  <diagram name="Page-1" id="mntJuYkYdj23miW8KpMK">
    <mxGraphModel dx="1648" dy="1719" grid="1" gridSize="10" guides="1" tooltips="1" connect="1" arrows="1" fold="1" page="1" pageScale="1" pageWidth="827" pageHeight="1169" math="0" shadow="0">
      <root>
        <mxCell id="0" />
        <mxCell id="1" parent="0" />
        <mxCell id="J8QxN3xn0YAtA8H0Q5fw-8" style="edgeStyle=orthogonalEdgeStyle;rounded=0;orthogonalLoop=1;jettySize=auto;html=1;endArrow=block;endFill=0;dashed=1;dashPattern=8 8;" edge="1" parent="1" source="J8QxN3xn0YAtA8H0Q5fw-1" target="J8QxN3xn0YAtA8H0Q5fw-7">
          <mxGeometry relative="1" as="geometry" />
        </mxCell>
        <mxCell id="J8QxN3xn0YAtA8H0Q5fw-12" style="edgeStyle=orthogonalEdgeStyle;rounded=0;orthogonalLoop=1;jettySize=auto;html=1;dashed=1;dashPattern=8 8;endArrow=block;endFill=0;" edge="1" parent="1" source="J8QxN3xn0YAtA8H0Q5fw-1" target="J8QxN3xn0YAtA8H0Q5fw-11">
          <mxGeometry relative="1" as="geometry" />
        </mxCell>
        <mxCell id="J8QxN3xn0YAtA8H0Q5fw-18" style="edgeStyle=orthogonalEdgeStyle;rounded=0;orthogonalLoop=1;jettySize=auto;html=1;endArrow=block;endFill=0;dashed=1;dashPattern=8 8;exitX=0.5;exitY=0;exitDx=0;exitDy=0;" edge="1" parent="1" source="J8QxN3xn0YAtA8H0Q5fw-1" target="J8QxN3xn0YAtA8H0Q5fw-17">
          <mxGeometry relative="1" as="geometry" />
        </mxCell>
        <mxCell id="J8QxN3xn0YAtA8H0Q5fw-21" style="edgeStyle=orthogonalEdgeStyle;rounded=0;orthogonalLoop=1;jettySize=auto;html=1;startArrow=diamondThin;startFill=1;endArrow=none;endFill=0;" edge="1" parent="1" source="J8QxN3xn0YAtA8H0Q5fw-1" target="J8QxN3xn0YAtA8H0Q5fw-20">
          <mxGeometry relative="1" as="geometry">
            <Array as="points">
              <mxPoint x="970" y="175" />
              <mxPoint x="970" y="255" />
            </Array>
          </mxGeometry>
        </mxCell>
        <mxCell id="J8QxN3xn0YAtA8H0Q5fw-45" style="edgeStyle=orthogonalEdgeStyle;rounded=0;orthogonalLoop=1;jettySize=auto;html=1;exitX=1;exitY=0.75;exitDx=0;exitDy=0;entryX=0;entryY=0.5;entryDx=0;entryDy=0;endArrow=none;endFill=0;startArrow=diamondThin;startFill=1;" edge="1" parent="1" source="J8QxN3xn0YAtA8H0Q5fw-1" target="J8QxN3xn0YAtA8H0Q5fw-37">
          <mxGeometry relative="1" as="geometry">
            <Array as="points">
              <mxPoint x="910" y="213" />
              <mxPoint x="910" y="450" />
              <mxPoint x="1430" y="450" />
              <mxPoint x="1430" y="310" />
            </Array>
          </mxGeometry>
        </mxCell>
        <mxCell id="J8QxN3xn0YAtA8H0Q5fw-1" value="&lt;p style=&quot;margin:0px;margin-top:4px;text-align:center;&quot;&gt;&lt;b&gt;GameModel&lt;/b&gt;&lt;/p&gt;&lt;hr size=&quot;1&quot; style=&quot;border-style:solid;&quot;&gt;&lt;p style=&quot;margin:0px;margin-left:4px;&quot;&gt;&lt;span style=&quot;background-color: initial;&quot;&gt;- background: List&amp;lt;TileModel&amp;gt;&lt;/span&gt;&lt;br&gt;&lt;/p&gt;&lt;p style=&quot;margin: 0px 0px 0px 4px;&quot;&gt;- foreground: List&amp;lt;TileModel&amp;gt;&lt;/p&gt;&lt;p style=&quot;margin:0px;margin-left:4px;&quot;&gt;- items: List&amp;lt;Item&amp;gt;&lt;/p&gt;&lt;p style=&quot;margin:0px;margin-left:4px;&quot;&gt;- world: World&lt;/p&gt;&lt;p style=&quot;margin:0px;margin-left:4px;&quot;&gt;- player: PlayerModel&lt;/p&gt;&lt;p style=&quot;margin:0px;margin-left:4px;&quot;&gt;- state: GameState&lt;/p&gt;&lt;hr size=&quot;1&quot; style=&quot;border-style:solid;&quot;&gt;&lt;p style=&quot;margin:0px;margin-left:4px;&quot;&gt;+ new(): GameModel&lt;/p&gt;" style="verticalAlign=top;align=left;overflow=fill;html=1;whiteSpace=wrap;" vertex="1" parent="1">
          <mxGeometry x="410" y="100" width="190" height="150" as="geometry" />
        </mxCell>
        <mxCell id="J8QxN3xn0YAtA8H0Q5fw-10" style="edgeStyle=orthogonalEdgeStyle;rounded=0;orthogonalLoop=1;jettySize=auto;html=1;endArrow=open;endFill=0;" edge="1" parent="1" source="J8QxN3xn0YAtA8H0Q5fw-7" target="J8QxN3xn0YAtA8H0Q5fw-9">
          <mxGeometry relative="1" as="geometry" />
        </mxCell>
        <mxCell id="J8QxN3xn0YAtA8H0Q5fw-7" value="&lt;p style=&quot;margin:0px;margin-top:4px;text-align:center;&quot;&gt;&lt;i&gt;&amp;lt;&amp;lt;Interface&amp;gt;&amp;gt;&lt;/i&gt;&lt;br&gt;&lt;b&gt;ViewableGameModel&lt;/b&gt;&lt;/p&gt;&lt;hr size=&quot;1&quot; style=&quot;border-style:solid;&quot;&gt;&lt;p style=&quot;margin:0px;margin-left:4px;&quot;&gt;&lt;span style=&quot;background-color: initial;&quot;&gt;+ getViewablePlayer(): ViewablePlayerModel&lt;/span&gt;&lt;br&gt;&lt;/p&gt;&lt;p style=&quot;margin:0px;margin-left:4px;&quot;&gt;+ getForegroundTiles(): Iterable&amp;lt;ViewableTile&amp;gt;&lt;/p&gt;&lt;p style=&quot;margin:0px;margin-left:4px;&quot;&gt;+ getBackgroundTiles(): Iterable&amp;lt;ViewableTile&amp;gt;&lt;br&gt;&lt;/p&gt;&lt;p style=&quot;margin:0px;margin-left:4px;&quot;&gt;+ getItems(): Iterable&amp;lt;ViewableItem&amp;gt;&lt;/p&gt;" style="verticalAlign=top;align=left;overflow=fill;html=1;whiteSpace=wrap;" vertex="1" parent="1">
          <mxGeometry x="170" y="-400" width="300" height="110" as="geometry" />
        </mxCell>
        <mxCell id="J8QxN3xn0YAtA8H0Q5fw-9" value="&lt;p style=&quot;margin:0px;margin-top:4px;text-align:center;&quot;&gt;&lt;i&gt;&amp;lt;&amp;lt;Interface&amp;gt;&amp;gt;&lt;/i&gt;&lt;br&gt;&lt;b&gt;GameStateGettable&lt;/b&gt;&lt;/p&gt;&lt;hr size=&quot;1&quot; style=&quot;border-style:solid;&quot;&gt;&lt;p style=&quot;margin:0px;margin-left:4px;&quot;&gt;&lt;/p&gt;&lt;p style=&quot;margin:0px;margin-left:4px;&quot;&gt;+ getState(): GameState&lt;br&gt;&lt;br&gt;&lt;/p&gt;" style="verticalAlign=top;align=left;overflow=fill;html=1;whiteSpace=wrap;" vertex="1" parent="1">
          <mxGeometry x="410" y="-690" width="190" height="70" as="geometry" />
        </mxCell>
        <mxCell id="J8QxN3xn0YAtA8H0Q5fw-14" style="edgeStyle=orthogonalEdgeStyle;rounded=0;orthogonalLoop=1;jettySize=auto;html=1;endArrow=open;endFill=0;" edge="1" parent="1" source="J8QxN3xn0YAtA8H0Q5fw-11" target="J8QxN3xn0YAtA8H0Q5fw-13">
          <mxGeometry relative="1" as="geometry" />
        </mxCell>
        <mxCell id="J8QxN3xn0YAtA8H0Q5fw-19" style="edgeStyle=orthogonalEdgeStyle;rounded=0;orthogonalLoop=1;jettySize=auto;html=1;endArrow=open;endFill=0;" edge="1" parent="1" source="J8QxN3xn0YAtA8H0Q5fw-11" target="J8QxN3xn0YAtA8H0Q5fw-9">
          <mxGeometry relative="1" as="geometry" />
        </mxCell>
        <mxCell id="J8QxN3xn0YAtA8H0Q5fw-11" value="&lt;p style=&quot;margin:0px;margin-top:4px;text-align:center;&quot;&gt;&lt;i&gt;&amp;lt;&amp;lt;Interface&amp;gt;&amp;gt;&lt;/i&gt;&lt;br&gt;&lt;b&gt;ControllableGameModel&lt;/b&gt;&lt;/p&gt;&lt;hr size=&quot;1&quot; style=&quot;border-style:solid;&quot;&gt;&lt;p style=&quot;margin:0px;margin-left:4px;&quot;&gt;&lt;/p&gt;&lt;p style=&quot;margin:0px;margin-left:4px;&quot;&gt;+ getControllablePlayer(): ControllablePlayerModel&lt;br&gt;+ setState(GameState): void&lt;/p&gt;" style="verticalAlign=top;align=left;overflow=fill;html=1;whiteSpace=wrap;" vertex="1" parent="1">
          <mxGeometry x="580" y="-370" width="300" height="80" as="geometry" />
        </mxCell>
        <mxCell id="J8QxN3xn0YAtA8H0Q5fw-13" value="&lt;p style=&quot;margin:0px;margin-top:4px;text-align:center;&quot;&gt;&lt;i&gt;&amp;lt;&amp;lt;Interface&amp;gt;&amp;gt;&lt;/i&gt;&lt;br&gt;&lt;b&gt;Stepable&lt;/b&gt;&lt;/p&gt;&lt;hr size=&quot;1&quot; style=&quot;border-style:solid;&quot;&gt;&lt;p style=&quot;margin:0px;margin-left:4px;&quot;&gt;&lt;/p&gt;&lt;p style=&quot;margin:0px;margin-left:4px;&quot;&gt;+ step(float): void&lt;br&gt;&lt;br&gt;&lt;/p&gt;" style="verticalAlign=top;align=left;overflow=fill;html=1;whiteSpace=wrap;" vertex="1" parent="1">
          <mxGeometry x="870" y="-670" width="190" height="70" as="geometry" />
        </mxCell>
        <mxCell id="J8QxN3xn0YAtA8H0Q5fw-17" value="«interface»&lt;br&gt;&lt;b&gt;ContactListener&lt;/b&gt;" style="html=1;whiteSpace=wrap;" vertex="1" parent="1">
          <mxGeometry x="827" y="-240" width="110" height="50" as="geometry" />
        </mxCell>
        <mxCell id="J8QxN3xn0YAtA8H0Q5fw-24" style="edgeStyle=orthogonalEdgeStyle;rounded=0;orthogonalLoop=1;jettySize=auto;html=1;dashed=1;dashPattern=8 8;endArrow=block;endFill=0;" edge="1" parent="1" source="J8QxN3xn0YAtA8H0Q5fw-20" target="J8QxN3xn0YAtA8H0Q5fw-22">
          <mxGeometry relative="1" as="geometry" />
        </mxCell>
        <mxCell id="J8QxN3xn0YAtA8H0Q5fw-26" style="edgeStyle=orthogonalEdgeStyle;rounded=0;orthogonalLoop=1;jettySize=auto;html=1;endArrow=block;endFill=0;dashed=1;dashPattern=8 8;" edge="1" parent="1" source="J8QxN3xn0YAtA8H0Q5fw-20" target="J8QxN3xn0YAtA8H0Q5fw-25">
          <mxGeometry relative="1" as="geometry" />
        </mxCell>
        <mxCell id="J8QxN3xn0YAtA8H0Q5fw-35" style="edgeStyle=orthogonalEdgeStyle;rounded=0;orthogonalLoop=1;jettySize=auto;html=1;exitX=0.5;exitY=0;exitDx=0;exitDy=0;dashed=1;dashPattern=8 8;endArrow=block;endFill=0;" edge="1" parent="1" source="J8QxN3xn0YAtA8H0Q5fw-20" target="J8QxN3xn0YAtA8H0Q5fw-17">
          <mxGeometry relative="1" as="geometry" />
        </mxCell>
        <mxCell id="J8QxN3xn0YAtA8H0Q5fw-36" style="edgeStyle=orthogonalEdgeStyle;rounded=0;orthogonalLoop=1;jettySize=auto;html=1;exitX=0.5;exitY=0;exitDx=0;exitDy=0;dashed=1;dashPattern=8 8;endArrow=block;endFill=0;" edge="1" parent="1" source="J8QxN3xn0YAtA8H0Q5fw-20" target="J8QxN3xn0YAtA8H0Q5fw-34">
          <mxGeometry relative="1" as="geometry" />
        </mxCell>
        <mxCell id="J8QxN3xn0YAtA8H0Q5fw-20" value="&lt;p style=&quot;margin:0px;margin-top:4px;text-align:center;&quot;&gt;&lt;b&gt;PlayerModel&lt;/b&gt;&lt;/p&gt;&lt;hr size=&quot;1&quot; style=&quot;border-style:solid;&quot;&gt;&lt;p style=&quot;margin:0px;margin-left:4px;&quot;&gt;- world: World&lt;/p&gt;&lt;p style=&quot;margin:0px;margin-left:4px;&quot;&gt;- body: Body&lt;br&gt;&lt;/p&gt;&lt;div&gt;&amp;nbsp;- shapeTop: Shape&lt;/div&gt;&lt;div&gt;&amp;nbsp;- shapeBottom: Shape&lt;br&gt;&lt;/div&gt;&lt;div&gt;&amp;nbsp;- shapeLeft: Shape&lt;br&gt;&lt;/div&gt;&lt;div&gt;&amp;nbsp;- shapeRight: Shape&lt;br&gt;&lt;/div&gt;&lt;div&gt;&amp;nbsp;- moveUp: boolean&lt;/div&gt;&lt;div&gt;&amp;nbsp;- moveDown: boolean&lt;br&gt;&lt;/div&gt;&lt;div&gt;&amp;nbsp;- moveLeft: boolean&lt;br&gt;&lt;/div&gt;&lt;div&gt;&amp;nbsp;- moveRight: boolean&lt;br&gt;&lt;/div&gt;&lt;div&gt;&amp;nbsp;- state: PlayerState&lt;/div&gt;&lt;div&gt;&amp;nbsp;- contactCountSensor: int&lt;/div&gt;&lt;hr size=&quot;1&quot; style=&quot;border-style:solid;&quot;&gt;&lt;p style=&quot;margin:0px;margin-left:4px;&quot;&gt;+ new(World, float, float): PlayerModel&lt;/p&gt;&lt;p style=&quot;margin:0px;margin-left:4px;&quot;&gt;- createBody(float, float): Body&lt;/p&gt;&lt;p style=&quot;margin:0px;margin-left:4px;&quot;&gt;- createShapes(): void&lt;/p&gt;&lt;p style=&quot;margin:0px;margin-left:4px;&quot;&gt;- createFixtures(Body): void&lt;/p&gt;&lt;p style=&quot;margin:0px;margin-left:4px;&quot;&gt;- isGrounded(): boolean&lt;/p&gt;&lt;p style=&quot;margin:0px;margin-left:4px;&quot;&gt;- move(float, float): void&lt;/p&gt;" style="verticalAlign=top;align=left;overflow=fill;html=1;whiteSpace=wrap;" vertex="1" parent="1">
          <mxGeometry x="1100" y="100" width="220" height="310" as="geometry" />
        </mxCell>
        <mxCell id="J8QxN3xn0YAtA8H0Q5fw-23" style="edgeStyle=orthogonalEdgeStyle;rounded=0;orthogonalLoop=1;jettySize=auto;html=1;endArrow=open;endFill=0;" edge="1" parent="1" source="J8QxN3xn0YAtA8H0Q5fw-22" target="J8QxN3xn0YAtA8H0Q5fw-13">
          <mxGeometry relative="1" as="geometry" />
        </mxCell>
        <mxCell id="J8QxN3xn0YAtA8H0Q5fw-22" value="&lt;p style=&quot;margin:0px;margin-top:4px;text-align:center;&quot;&gt;&lt;i&gt;&amp;lt;&amp;lt;Interface&amp;gt;&amp;gt;&lt;/i&gt;&lt;br&gt;&lt;b&gt;ControllablePlayerModel&lt;/b&gt;&lt;/p&gt;&lt;hr size=&quot;1&quot; style=&quot;border-style:solid;&quot;&gt;&lt;p style=&quot;margin:0px;margin-left:4px;&quot;&gt;&lt;/p&gt;&lt;p style=&quot;margin:0px;margin-left:4px;&quot;&gt;+ moveUp(boolean): void&lt;br&gt;+ moveDown(boolean): void&lt;br&gt;&lt;/p&gt;&lt;p style=&quot;margin:0px;margin-left:4px;&quot;&gt;+ moveLeft(boolean): void&lt;br&gt;&lt;/p&gt;&lt;p style=&quot;margin:0px;margin-left:4px;&quot;&gt;+ moveRight(boolean): void&lt;br&gt;&lt;/p&gt;&lt;p style=&quot;margin:0px;margin-left:4px;&quot;&gt;+ useItem(): void&lt;/p&gt;" style="verticalAlign=top;align=left;overflow=fill;html=1;whiteSpace=wrap;" vertex="1" parent="1">
          <mxGeometry x="1000" y="-400" width="190" height="120" as="geometry" />
        </mxCell>
        <mxCell id="J8QxN3xn0YAtA8H0Q5fw-28" style="edgeStyle=orthogonalEdgeStyle;rounded=0;orthogonalLoop=1;jettySize=auto;html=1;endArrow=open;endFill=0;" edge="1" parent="1" source="J8QxN3xn0YAtA8H0Q5fw-25" target="J8QxN3xn0YAtA8H0Q5fw-27">
          <mxGeometry relative="1" as="geometry" />
        </mxCell>
        <mxCell id="J8QxN3xn0YAtA8H0Q5fw-31" style="edgeStyle=orthogonalEdgeStyle;rounded=0;orthogonalLoop=1;jettySize=auto;html=1;endArrow=open;endFill=0;" edge="1" parent="1" source="J8QxN3xn0YAtA8H0Q5fw-25" target="J8QxN3xn0YAtA8H0Q5fw-30">
          <mxGeometry relative="1" as="geometry" />
        </mxCell>
        <mxCell id="J8QxN3xn0YAtA8H0Q5fw-33" style="edgeStyle=orthogonalEdgeStyle;rounded=0;orthogonalLoop=1;jettySize=auto;html=1;endArrow=open;endFill=0;exitX=0.5;exitY=0;exitDx=0;exitDy=0;" edge="1" parent="1" source="J8QxN3xn0YAtA8H0Q5fw-25" target="J8QxN3xn0YAtA8H0Q5fw-32">
          <mxGeometry relative="1" as="geometry" />
        </mxCell>
        <mxCell id="J8QxN3xn0YAtA8H0Q5fw-25" value="&lt;p style=&quot;margin:0px;margin-top:4px;text-align:center;&quot;&gt;&lt;i&gt;&amp;lt;&amp;lt;Interface&amp;gt;&amp;gt;&lt;/i&gt;&lt;br&gt;&lt;b&gt;ViewablePlayerModel&lt;/b&gt;&lt;/p&gt;" style="verticalAlign=top;align=left;overflow=fill;html=1;whiteSpace=wrap;" vertex="1" parent="1">
          <mxGeometry x="1330" y="-340" width="190" height="40" as="geometry" />
        </mxCell>
        <mxCell id="J8QxN3xn0YAtA8H0Q5fw-27" value="&lt;p style=&quot;margin:0px;margin-top:4px;text-align:center;&quot;&gt;&lt;i&gt;&amp;lt;&amp;lt;Interface&amp;gt;&amp;gt;&lt;/i&gt;&lt;br&gt;&lt;b&gt;Sizeable&lt;/b&gt;&lt;/p&gt;&lt;hr size=&quot;1&quot; style=&quot;border-style:solid;&quot;&gt;&lt;p style=&quot;margin:0px;margin-left:4px;&quot;&gt;+ getWidth(): float&lt;br&gt;+ getHeight(): float&lt;br&gt;&lt;/p&gt;" style="verticalAlign=top;align=left;overflow=fill;html=1;whiteSpace=wrap;" vertex="1" parent="1">
          <mxGeometry x="1250" y="-1005" width="110" height="80" as="geometry" />
        </mxCell>
        <mxCell id="J8QxN3xn0YAtA8H0Q5fw-30" value="&lt;p style=&quot;margin:0px;margin-top:4px;text-align:center;&quot;&gt;&lt;i&gt;&amp;lt;&amp;lt;Interface&amp;gt;&amp;gt;&lt;/i&gt;&lt;br&gt;&lt;b&gt;Positionable&lt;/b&gt;&lt;/p&gt;&lt;hr size=&quot;1&quot; style=&quot;border-style:solid;&quot;&gt;&lt;p style=&quot;margin:0px;margin-left:4px;&quot;&gt;&lt;span style=&quot;background-color: initial;&quot;&gt;+ getX(): float&lt;/span&gt;&lt;br&gt;&lt;/p&gt;&lt;p style=&quot;margin: 0px 0px 0px 4px;&quot;&gt;&lt;span style=&quot;background-color: initial;&quot;&gt;+ getY(): float&lt;/span&gt;&lt;/p&gt;" style="verticalAlign=top;align=left;overflow=fill;html=1;whiteSpace=wrap;" vertex="1" parent="1">
          <mxGeometry x="1390" y="-870" width="100" height="80" as="geometry" />
        </mxCell>
        <mxCell id="J8QxN3xn0YAtA8H0Q5fw-32" value="&lt;p style=&quot;margin:0px;margin-top:4px;text-align:center;&quot;&gt;&lt;i&gt;&amp;lt;&amp;lt;Interface&amp;gt;&amp;gt;&lt;/i&gt;&lt;br&gt;&lt;b&gt;PlayerStateGettable&lt;/b&gt;&lt;/p&gt;&lt;hr size=&quot;1&quot; style=&quot;border-style:solid;&quot;&gt;&lt;p style=&quot;margin:0px;margin-left:4px;&quot;&gt;&lt;span style=&quot;background-color: initial;&quot;&gt;+ getState(): PlayerState&lt;/span&gt;&lt;br&gt;&lt;/p&gt;&lt;p style=&quot;margin:0px;margin-left:4px;&quot;&gt;&lt;br&gt;&lt;/p&gt;" style="verticalAlign=top;align=left;overflow=fill;html=1;whiteSpace=wrap;" vertex="1" parent="1">
          <mxGeometry x="1470" y="-654" width="150" height="70" as="geometry" />
        </mxCell>
        <mxCell id="J8QxN3xn0YAtA8H0Q5fw-49" style="edgeStyle=orthogonalEdgeStyle;rounded=0;orthogonalLoop=1;jettySize=auto;html=1;exitX=1;exitY=0.75;exitDx=0;exitDy=0;entryX=0;entryY=0.5;entryDx=0;entryDy=0;dashed=1;endArrow=open;endFill=0;" edge="1" parent="1" source="J8QxN3xn0YAtA8H0Q5fw-34" target="J8QxN3xn0YAtA8H0Q5fw-48">
          <mxGeometry relative="1" as="geometry" />
        </mxCell>
        <mxCell id="J8QxN3xn0YAtA8H0Q5fw-34" value="&lt;p style=&quot;margin:0px;margin-top:4px;text-align:center;&quot;&gt;&lt;i&gt;&amp;lt;&amp;lt;Interface&amp;gt;&amp;gt;&lt;/i&gt;&lt;br&gt;&lt;b&gt;EventHanlder&lt;/b&gt;&lt;/p&gt;&lt;hr size=&quot;1&quot; style=&quot;border-style:solid;&quot;&gt;&lt;p style=&quot;margin:0px;margin-left:4px;&quot;&gt;&lt;span style=&quot;background-color: initial;&quot;&gt;+ handleEvent(Event): void&lt;/span&gt;&lt;br&gt;&lt;/p&gt;&lt;p style=&quot;margin:0px;margin-left:4px;&quot;&gt;&lt;br&gt;&lt;/p&gt;" style="verticalAlign=top;align=left;overflow=fill;html=1;whiteSpace=wrap;" vertex="1" parent="1">
          <mxGeometry x="1575" y="-1000" width="160" height="70" as="geometry" />
        </mxCell>
        <mxCell id="J8QxN3xn0YAtA8H0Q5fw-38" style="edgeStyle=orthogonalEdgeStyle;rounded=0;orthogonalLoop=1;jettySize=auto;html=1;endArrow=block;endFill=0;strokeColor=none;dashed=1;dashPattern=8 8;" edge="1" parent="1" source="J8QxN3xn0YAtA8H0Q5fw-37" target="J8QxN3xn0YAtA8H0Q5fw-34">
          <mxGeometry relative="1" as="geometry" />
        </mxCell>
        <mxCell id="J8QxN3xn0YAtA8H0Q5fw-39" style="edgeStyle=orthogonalEdgeStyle;rounded=0;orthogonalLoop=1;jettySize=auto;html=1;exitX=0.5;exitY=0;exitDx=0;exitDy=0;endArrow=block;endFill=0;dashed=1;dashPattern=8 8;entryX=0.5;entryY=1;entryDx=0;entryDy=0;" edge="1" parent="1" source="J8QxN3xn0YAtA8H0Q5fw-37" target="J8QxN3xn0YAtA8H0Q5fw-34">
          <mxGeometry relative="1" as="geometry">
            <mxPoint x="1790" y="-70" as="targetPoint" />
          </mxGeometry>
        </mxCell>
        <mxCell id="J8QxN3xn0YAtA8H0Q5fw-40" style="edgeStyle=orthogonalEdgeStyle;rounded=0;orthogonalLoop=1;jettySize=auto;html=1;exitX=0.5;exitY=0;exitDx=0;exitDy=0;entryX=0.5;entryY=1;entryDx=0;entryDy=0;dashed=1;dashPattern=8 8;endArrow=block;endFill=0;" edge="1" parent="1" source="J8QxN3xn0YAtA8H0Q5fw-37" target="J8QxN3xn0YAtA8H0Q5fw-13">
          <mxGeometry relative="1" as="geometry" />
        </mxCell>
        <mxCell id="J8QxN3xn0YAtA8H0Q5fw-42" style="edgeStyle=orthogonalEdgeStyle;rounded=0;orthogonalLoop=1;jettySize=auto;html=1;exitX=0.5;exitY=0;exitDx=0;exitDy=0;entryX=0.5;entryY=1;entryDx=0;entryDy=0;dashed=1;dashPattern=8 8;endArrow=block;endFill=0;" edge="1" parent="1" source="J8QxN3xn0YAtA8H0Q5fw-37" target="J8QxN3xn0YAtA8H0Q5fw-41">
          <mxGeometry relative="1" as="geometry" />
        </mxCell>
        <mxCell id="J8QxN3xn0YAtA8H0Q5fw-37" value="&lt;p style=&quot;margin:0px;margin-top:4px;text-align:center;&quot;&gt;&lt;b&gt;TileModel&lt;/b&gt;&lt;/p&gt;&lt;hr size=&quot;1&quot; style=&quot;border-style:solid;&quot;&gt;&lt;p style=&quot;margin:0px;margin-left:4px;&quot;&gt;- world: World&lt;/p&gt;&lt;p style=&quot;margin:0px;margin-left:4px;&quot;&gt;- body: Body&lt;/p&gt;&lt;p style=&quot;margin:0px;margin-left:4px;&quot;&gt;- shape: Shape&lt;/p&gt;&lt;p style=&quot;margin:0px;margin-left:4px;&quot;&gt;- width: float&lt;/p&gt;&lt;p style=&quot;margin:0px;margin-left:4px;&quot;&gt;- height: float&lt;/p&gt;&lt;hr size=&quot;1&quot; style=&quot;border-style:solid;&quot;&gt;&lt;p style=&quot;margin:0px;margin-left:4px;&quot;&gt;+ loadStatic(): void&lt;/p&gt;&lt;p style=&quot;margin:0px;margin-left:4px;&quot;&gt;+ new(World, float&lt;span style=&quot;background-color: initial;&quot;&gt;, float&lt;/span&gt;&lt;span style=&quot;background-color: initial;&quot;&gt;, float&lt;/span&gt;&lt;span style=&quot;background-color: initial;&quot;&gt;, float&lt;/span&gt;&lt;span style=&quot;background-color: initial;&quot;&gt;): TileModel&lt;/span&gt;&lt;/p&gt;&lt;p style=&quot;margin:0px;margin-left:4px;&quot;&gt;# createBody(float&lt;span style=&quot;background-color: initial;&quot;&gt;, float): Body&lt;/span&gt;&lt;/p&gt;&lt;p style=&quot;margin:0px;margin-left:4px;&quot;&gt;&lt;span style=&quot;background-color: initial;&quot;&gt;# createShape(float&lt;/span&gt;&lt;span style=&quot;background-color: initial;&quot;&gt;, float): Shape&lt;/span&gt;&lt;/p&gt;" style="verticalAlign=top;align=left;overflow=fill;html=1;whiteSpace=wrap;" vertex="1" parent="1">
          <mxGeometry x="1520" y="200" width="270" height="220" as="geometry" />
        </mxCell>
        <mxCell id="J8QxN3xn0YAtA8H0Q5fw-43" style="edgeStyle=orthogonalEdgeStyle;rounded=0;orthogonalLoop=1;jettySize=auto;html=1;exitX=0.5;exitY=0;exitDx=0;exitDy=0;entryX=0.5;entryY=1;entryDx=0;entryDy=0;endArrow=open;endFill=0;" edge="1" parent="1" source="J8QxN3xn0YAtA8H0Q5fw-41" target="J8QxN3xn0YAtA8H0Q5fw-27">
          <mxGeometry relative="1" as="geometry" />
        </mxCell>
        <mxCell id="J8QxN3xn0YAtA8H0Q5fw-44" style="edgeStyle=orthogonalEdgeStyle;rounded=0;orthogonalLoop=1;jettySize=auto;html=1;exitX=0.5;exitY=0;exitDx=0;exitDy=0;entryX=0.5;entryY=1;entryDx=0;entryDy=0;endArrow=open;endFill=0;" edge="1" parent="1" source="J8QxN3xn0YAtA8H0Q5fw-41" target="J8QxN3xn0YAtA8H0Q5fw-30">
          <mxGeometry relative="1" as="geometry" />
        </mxCell>
        <mxCell id="J8QxN3xn0YAtA8H0Q5fw-41" value="«interface»&lt;br&gt;&lt;b&gt;ViewableTile&lt;/b&gt;" style="html=1;whiteSpace=wrap;" vertex="1" parent="1">
          <mxGeometry x="1710" y="-200" width="110" height="50" as="geometry" />
        </mxCell>
        <mxCell id="J8QxN3xn0YAtA8H0Q5fw-47" style="edgeStyle=orthogonalEdgeStyle;rounded=0;orthogonalLoop=1;jettySize=auto;html=1;exitX=0;exitY=0.5;exitDx=0;exitDy=0;entryX=1;entryY=0.5;entryDx=0;entryDy=0;startArrow=diamondThin;startFill=0;endArrow=none;endFill=0;" edge="1" parent="1" source="J8QxN3xn0YAtA8H0Q5fw-46" target="J8QxN3xn0YAtA8H0Q5fw-34">
          <mxGeometry relative="1" as="geometry">
            <Array as="points">
              <mxPoint x="2140" y="-205" />
              <mxPoint x="2140" y="-685" />
              <mxPoint x="1735" y="-685" />
            </Array>
          </mxGeometry>
        </mxCell>
        <mxCell id="J8QxN3xn0YAtA8H0Q5fw-50" style="edgeStyle=orthogonalEdgeStyle;rounded=0;orthogonalLoop=1;jettySize=auto;html=1;exitX=0;exitY=0.75;exitDx=0;exitDy=0;entryX=1;entryY=0.5;entryDx=0;entryDy=0;dashed=1;endArrow=open;endFill=0;" edge="1" parent="1" source="J8QxN3xn0YAtA8H0Q5fw-46" target="J8QxN3xn0YAtA8H0Q5fw-48">
          <mxGeometry relative="1" as="geometry" />
        </mxCell>
        <mxCell id="J8QxN3xn0YAtA8H0Q5fw-46" value="&lt;p style=&quot;margin:0px;margin-top:4px;text-align:center;&quot;&gt;&lt;b&gt;EventBus&lt;/b&gt;&lt;/p&gt;&lt;hr size=&quot;1&quot; style=&quot;border-style:solid;&quot;&gt;&lt;p style=&quot;margin:0px;margin-left:4px;&quot;&gt;- handlers: List&amp;lt;EventHandler&amp;gt;&lt;/p&gt;&lt;hr size=&quot;1&quot; style=&quot;border-style:solid;&quot;&gt;&lt;p style=&quot;margin:0px;margin-left:4px;&quot;&gt;+ new(): EventBus&lt;/p&gt;&lt;p style=&quot;margin:0px;margin-left:4px;&quot;&gt;+ post(Event): void&lt;/p&gt;&lt;p style=&quot;margin:0px;margin-left:4px;&quot;&gt;+ addEventHandler(EventHandler): void&lt;/p&gt;" style="verticalAlign=top;align=left;overflow=fill;html=1;whiteSpace=wrap;" vertex="1" parent="1">
          <mxGeometry x="2290" y="-260" width="230" height="110" as="geometry" />
        </mxCell>
        <mxCell id="J8QxN3xn0YAtA8H0Q5fw-48" value="«interface»&lt;br&gt;&lt;b&gt;Event&lt;/b&gt;" style="html=1;whiteSpace=wrap;" vertex="1" parent="1">
          <mxGeometry x="1940" y="-620" width="110" height="50" as="geometry" />
        </mxCell>
        <mxCell id="J8QxN3xn0YAtA8H0Q5fw-54" style="edgeStyle=orthogonalEdgeStyle;rounded=0;orthogonalLoop=1;jettySize=auto;html=1;exitX=0;exitY=0.5;exitDx=0;exitDy=0;entryX=0.5;entryY=1;entryDx=0;entryDy=0;dashed=1;endArrow=open;endFill=0;" edge="1" parent="1" source="J8QxN3xn0YAtA8H0Q5fw-52" target="J8QxN3xn0YAtA8H0Q5fw-53">
          <mxGeometry relative="1" as="geometry" />
        </mxCell>
        <mxCell id="J8QxN3xn0YAtA8H0Q5fw-55" style="edgeStyle=orthogonalEdgeStyle;rounded=0;orthogonalLoop=1;jettySize=auto;html=1;exitX=0;exitY=0.5;exitDx=0;exitDy=0;entryX=1;entryY=0.5;entryDx=0;entryDy=0;dashed=1;endArrow=open;endFill=0;" edge="1" parent="1" source="J8QxN3xn0YAtA8H0Q5fw-52" target="J8QxN3xn0YAtA8H0Q5fw-37">
          <mxGeometry relative="1" as="geometry" />
        </mxCell>
        <mxCell id="J8QxN3xn0YAtA8H0Q5fw-56" style="edgeStyle=orthogonalEdgeStyle;rounded=0;orthogonalLoop=1;jettySize=auto;html=1;exitX=0;exitY=0.5;exitDx=0;exitDy=0;entryX=0.25;entryY=1;entryDx=0;entryDy=0;dashed=1;endArrow=open;endFill=0;" edge="1" parent="1" source="J8QxN3xn0YAtA8H0Q5fw-52" target="J8QxN3xn0YAtA8H0Q5fw-46">
          <mxGeometry relative="1" as="geometry" />
        </mxCell>
        <mxCell id="J8QxN3xn0YAtA8H0Q5fw-52" value="&lt;p style=&quot;margin:0px;margin-top:4px;text-align:center;&quot;&gt;&lt;b&gt;TileFactory&lt;/b&gt;&lt;/p&gt;&lt;hr size=&quot;1&quot; style=&quot;border-style:solid;&quot;&gt;&lt;p style=&quot;margin:0px;margin-left:4px;&quot;&gt;+ translation: Map&amp;lt;Character, Function4&amp;lt;World, EventBus, float, float, TileModel&amp;gt;&lt;/p&gt;&lt;hr size=&quot;1&quot; style=&quot;border-style:solid;&quot;&gt;&lt;p style=&quot;margin:0px;margin-left:4px;&quot;&gt;+ generate(String, World, EventBus): List&amp;lt;TileModel&amp;gt;&lt;/p&gt;&lt;p style=&quot;margin:0px;margin-left:4px;&quot;&gt;+ register(char, Funtion4&amp;lt;&lt;span style=&quot;background-color: initial;&quot;&gt;World, EventBus, float, float, TileModel&amp;gt;&lt;/span&gt;&lt;span style=&quot;background-color: initial;&quot;&gt;): void&lt;/span&gt;&lt;/p&gt;" style="verticalAlign=top;align=left;overflow=fill;html=1;whiteSpace=wrap;" vertex="1" parent="1">
          <mxGeometry x="2140" y="340" width="450" height="90" as="geometry" />
        </mxCell>
        <mxCell id="J8QxN3xn0YAtA8H0Q5fw-53" value="&lt;p style=&quot;margin:0px;margin-top:4px;text-align:center;&quot;&gt;&lt;i&gt;&amp;lt;&amp;lt;Interface&amp;gt;&amp;gt;&lt;/i&gt;&lt;br&gt;&lt;b&gt;Function4&amp;lt;A,B,C,D,R&amp;gt;&lt;/b&gt;&lt;/p&gt;&lt;hr size=&quot;1&quot; style=&quot;border-style:solid;&quot;&gt;&lt;p style=&quot;margin:0px;margin-left:4px;&quot;&gt;&lt;/p&gt;&lt;p style=&quot;margin:0px;margin-left:4px;&quot;&gt;+ apply(A, B, C, D): R&lt;/p&gt;" style="verticalAlign=top;align=left;overflow=fill;html=1;whiteSpace=wrap;" vertex="1" parent="1">
          <mxGeometry x="1940" y="-150" width="190" height="70" as="geometry" />
        </mxCell>
        <mxCell id="J8QxN3xn0YAtA8H0Q5fw-60" style="edgeStyle=orthogonalEdgeStyle;rounded=0;orthogonalLoop=1;jettySize=auto;html=1;exitX=0.5;exitY=0;exitDx=0;exitDy=0;entryX=0.5;entryY=1;entryDx=0;entryDy=0;endArrow=block;endFill=0;" edge="1" parent="1" source="J8QxN3xn0YAtA8H0Q5fw-57" target="J8QxN3xn0YAtA8H0Q5fw-59">
          <mxGeometry relative="1" as="geometry" />
        </mxCell>
        <mxCell id="J8QxN3xn0YAtA8H0Q5fw-62" style="edgeStyle=orthogonalEdgeStyle;rounded=0;orthogonalLoop=1;jettySize=auto;html=1;exitX=0.5;exitY=0;exitDx=0;exitDy=0;entryX=0.5;entryY=1;entryDx=0;entryDy=0;dashed=1;dashPattern=8 8;endArrow=block;endFill=0;" edge="1" parent="1" source="J8QxN3xn0YAtA8H0Q5fw-57" target="J8QxN3xn0YAtA8H0Q5fw-34">
          <mxGeometry relative="1" as="geometry" />
        </mxCell>
        <mxCell id="J8QxN3xn0YAtA8H0Q5fw-63" style="edgeStyle=orthogonalEdgeStyle;rounded=0;orthogonalLoop=1;jettySize=auto;html=1;exitX=1;exitY=0.5;exitDx=0;exitDy=0;entryX=0.75;entryY=1;entryDx=0;entryDy=0;endArrow=none;endFill=0;startArrow=diamondThin;startFill=1;" edge="1" parent="1" source="J8QxN3xn0YAtA8H0Q5fw-57" target="J8QxN3xn0YAtA8H0Q5fw-11">
          <mxGeometry relative="1" as="geometry" />
        </mxCell>
        <mxCell id="J8QxN3xn0YAtA8H0Q5fw-57" value="&lt;p style=&quot;margin:0px;margin-top:4px;text-align:center;&quot;&gt;&lt;b&gt;Controller&lt;/b&gt;&lt;/p&gt;&lt;hr size=&quot;1&quot; style=&quot;border-style:solid;&quot;&gt;&lt;p style=&quot;margin:0px;margin-left:4px;&quot;&gt;- model: ControllableGameModel&lt;/p&gt;&lt;hr size=&quot;1&quot; style=&quot;border-style:solid;&quot;&gt;&lt;p style=&quot;margin:0px;margin-left:4px;&quot;&gt;+ new(ControllableGameModel): Controller&lt;/p&gt;" style="verticalAlign=top;align=left;overflow=fill;html=1;whiteSpace=wrap;" vertex="1" parent="1">
          <mxGeometry x="-80" y="270" width="270" height="80" as="geometry" />
        </mxCell>
        <mxCell id="J8QxN3xn0YAtA8H0Q5fw-59" value="&lt;b&gt;InputAdapter&lt;/b&gt;" style="html=1;whiteSpace=wrap;" vertex="1" parent="1">
          <mxGeometry x="-110" y="-10" width="110" height="50" as="geometry" />
        </mxCell>
        <mxCell id="J8QxN3xn0YAtA8H0Q5fw-67" style="edgeStyle=orthogonalEdgeStyle;rounded=0;orthogonalLoop=1;jettySize=auto;html=1;exitX=1.006;exitY=0.185;exitDx=0;exitDy=0;endArrow=none;endFill=0;entryX=0.75;entryY=1;entryDx=0;entryDy=0;exitPerimeter=0;startArrow=diamondThin;startFill=1;" edge="1" parent="1" source="J8QxN3xn0YAtA8H0Q5fw-64" target="J8QxN3xn0YAtA8H0Q5fw-46">
          <mxGeometry relative="1" as="geometry">
            <mxPoint x="2410" y="-150" as="targetPoint" />
            <mxPoint x="790" y="540.0000000000005" as="sourcePoint" />
          </mxGeometry>
        </mxCell>
        <mxCell id="J8QxN3xn0YAtA8H0Q5fw-69" style="edgeStyle=orthogonalEdgeStyle;rounded=0;orthogonalLoop=1;jettySize=auto;html=1;exitX=0;exitY=0.25;exitDx=0;exitDy=0;entryX=0.25;entryY=1;entryDx=0;entryDy=0;endArrow=none;endFill=0;startArrow=diamondThin;startFill=1;" edge="1" parent="1" source="J8QxN3xn0YAtA8H0Q5fw-64" target="J8QxN3xn0YAtA8H0Q5fw-7">
          <mxGeometry relative="1" as="geometry" />
        </mxCell>
        <mxCell id="J8QxN3xn0YAtA8H0Q5fw-70" style="edgeStyle=orthogonalEdgeStyle;rounded=0;orthogonalLoop=1;jettySize=auto;html=1;exitX=1;exitY=0.75;exitDx=0;exitDy=0;entryX=1;entryY=1;entryDx=0;entryDy=0;endArrow=open;endFill=0;dashed=1;" edge="1" parent="1" source="J8QxN3xn0YAtA8H0Q5fw-64" target="J8QxN3xn0YAtA8H0Q5fw-41">
          <mxGeometry relative="1" as="geometry" />
        </mxCell>
        <mxCell id="J8QxN3xn0YAtA8H0Q5fw-76" style="edgeStyle=orthogonalEdgeStyle;rounded=0;orthogonalLoop=1;jettySize=auto;html=1;entryX=0.5;entryY=1;entryDx=0;entryDy=0;dashed=1;dashPattern=8 8;endArrow=block;endFill=0;" edge="1" parent="1" source="J8QxN3xn0YAtA8H0Q5fw-64" target="J8QxN3xn0YAtA8H0Q5fw-73">
          <mxGeometry relative="1" as="geometry" />
        </mxCell>
        <mxCell id="J8QxN3xn0YAtA8H0Q5fw-64" value="&lt;p style=&quot;margin:0px;margin-top:4px;text-align:center;&quot;&gt;&lt;b&gt;GameScreen&lt;/b&gt;&lt;/p&gt;&lt;hr size=&quot;1&quot; style=&quot;border-style:solid;&quot;&gt;&lt;p style=&quot;margin:0px;margin-left:4px;&quot;&gt;- eventBus: EventBus&lt;/p&gt;&lt;p style=&quot;margin:0px;margin-left:4px;&quot;&gt;- sRenderer: ShapeRender&lt;/p&gt;&lt;p style=&quot;margin:0px;margin-left:4px;&quot;&gt;- model:ViewableGameModel&lt;/p&gt;&lt;p style=&quot;margin:0px;margin-left:4px;&quot;&gt;- gameCam: OrthographicCamera&lt;/p&gt;&lt;p style=&quot;margin:0px;margin-left:4px;&quot;&gt;- gamePort: ViewPort&lt;/p&gt;&lt;p style=&quot;margin:0px;margin-left:4px;&quot;&gt;- batch: SpriteBatch&lt;/p&gt;&lt;p style=&quot;margin:0px;margin-left:4px;&quot;&gt;- texturePack: ITexturePack&lt;/p&gt;&lt;hr size=&quot;1&quot; style=&quot;border-style:solid;&quot;&gt;&lt;p style=&quot;margin:0px;margin-left:4px;&quot;&gt;+ new(ViewableGameModel, EventBus, InputProcessor): GameScreen&lt;/p&gt;&lt;p style=&quot;margin:0px;margin-left:4px;&quot;&gt;- updateCamToPlayer(): void&lt;/p&gt;&lt;p style=&quot;margin:0px;margin-left:4px;&quot;&gt;- renderTiles(): void&lt;/p&gt;&lt;p style=&quot;margin:0px;margin-left:4px;&quot;&gt;- renderTile(ViewableTile):void&lt;/p&gt;&lt;p style=&quot;margin:0px;margin-left:4px;&quot;&gt;- renderPlayer(): void&lt;/p&gt;" style="verticalAlign=top;align=left;overflow=fill;html=1;whiteSpace=wrap;" vertex="1" parent="1">
          <mxGeometry x="530" y="600" width="320" height="240" as="geometry" />
        </mxCell>
        <mxCell id="J8QxN3xn0YAtA8H0Q5fw-77" style="edgeStyle=orthogonalEdgeStyle;rounded=0;orthogonalLoop=1;jettySize=auto;html=1;exitX=0;exitY=0.5;exitDx=0;exitDy=0;entryX=1;entryY=0.75;entryDx=0;entryDy=0;dashed=1;endArrow=none;endFill=0;startArrow=open;startFill=0;" edge="1" parent="1" source="J8QxN3xn0YAtA8H0Q5fw-71" target="J8QxN3xn0YAtA8H0Q5fw-64">
          <mxGeometry relative="1" as="geometry">
            <Array as="points">
              <mxPoint x="910" y="945" />
              <mxPoint x="910" y="830" />
              <mxPoint x="850" y="830" />
            </Array>
          </mxGeometry>
        </mxCell>
        <mxCell id="J8QxN3xn0YAtA8H0Q5fw-79" style="edgeStyle=orthogonalEdgeStyle;rounded=0;orthogonalLoop=1;jettySize=auto;html=1;exitX=1;exitY=0.25;exitDx=0;exitDy=0;entryX=0.75;entryY=1;entryDx=0;entryDy=0;endArrow=open;endFill=0;dashed=1;" edge="1" parent="1" source="J8QxN3xn0YAtA8H0Q5fw-71" target="J8QxN3xn0YAtA8H0Q5fw-41">
          <mxGeometry relative="1" as="geometry" />
        </mxCell>
        <mxCell id="J8QxN3xn0YAtA8H0Q5fw-71" value="&lt;p style=&quot;margin:0px;margin-top:4px;text-align:center;&quot;&gt;&lt;i&gt;&amp;lt;&amp;lt;Interface&amp;gt;&amp;gt;&lt;/i&gt;&lt;br&gt;&lt;b&gt;ITexturePack&lt;/b&gt;&lt;/p&gt;&lt;hr size=&quot;1&quot; style=&quot;border-style:solid;&quot;&gt;&lt;p style=&quot;margin:0px;margin-left:4px;&quot;&gt;+ getTileTexture(ViewableTile): TextureRegion&lt;/p&gt;&lt;p style=&quot;margin:0px;margin-left:4px;&quot;&gt;+ getPlayerTexture(PlayerState, float): TextureRegion&amp;nbsp;&lt;/p&gt;&lt;p style=&quot;margin:0px;margin-left:4px;&quot;&gt;&lt;br&gt;&lt;/p&gt;" style="verticalAlign=top;align=left;overflow=fill;html=1;whiteSpace=wrap;" vertex="1" parent="1">
          <mxGeometry x="970" y="890" width="440" height="110" as="geometry" />
        </mxCell>
        <mxCell id="J8QxN3xn0YAtA8H0Q5fw-73" value="«interface»&lt;br&gt;&lt;b&gt;Screen&lt;/b&gt;" style="html=1;whiteSpace=wrap;" vertex="1" parent="1">
          <mxGeometry x="570" y="400" width="110" height="50" as="geometry" />
        </mxCell>
        <mxCell id="J8QxN3xn0YAtA8H0Q5fw-86" style="edgeStyle=orthogonalEdgeStyle;rounded=0;orthogonalLoop=1;jettySize=auto;html=1;exitX=0.5;exitY=0;exitDx=0;exitDy=0;entryX=1;entryY=1;entryDx=0;entryDy=0;dashed=1;dashPattern=8 8;endArrow=block;endFill=0;" edge="1" parent="1" source="J8QxN3xn0YAtA8H0Q5fw-81" target="J8QxN3xn0YAtA8H0Q5fw-71">
          <mxGeometry relative="1" as="geometry" />
        </mxCell>
        <mxCell id="J8QxN3xn0YAtA8H0Q5fw-81" value="TexturePack" style="swimlane;fontStyle=1;align=center;verticalAlign=top;childLayout=stackLayout;horizontal=1;startSize=26;horizontalStack=0;resizeParent=1;resizeParentMax=0;resizeLast=0;collapsible=1;marginBottom=0;whiteSpace=wrap;html=1;" vertex="1" parent="1">
          <mxGeometry x="1908" y="850" width="430" height="130" as="geometry" />
        </mxCell>
        <mxCell id="J8QxN3xn0YAtA8H0Q5fw-82" value="- atlas: TextureAtlas&lt;div&gt;- PLAYER_ANIMATION_MAP: Map&amp;lt;PlayerState, Animation&amp;lt;TextureRegion&amp;gt;&amp;gt;&lt;/div&gt;" style="text;strokeColor=none;fillColor=none;align=left;verticalAlign=top;spacingLeft=4;spacingRight=4;overflow=hidden;rotatable=0;points=[[0,0.5],[1,0.5]];portConstraint=eastwest;whiteSpace=wrap;html=1;" vertex="1" parent="J8QxN3xn0YAtA8H0Q5fw-81">
          <mxGeometry y="26" width="430" height="54" as="geometry" />
        </mxCell>
        <mxCell id="J8QxN3xn0YAtA8H0Q5fw-83" value="" style="line;strokeWidth=1;fillColor=none;align=left;verticalAlign=middle;spacingTop=-1;spacingLeft=3;spacingRight=3;rotatable=0;labelPosition=right;points=[];portConstraint=eastwest;strokeColor=inherit;" vertex="1" parent="J8QxN3xn0YAtA8H0Q5fw-81">
          <mxGeometry y="80" width="430" height="8" as="geometry" />
        </mxCell>
        <mxCell id="J8QxN3xn0YAtA8H0Q5fw-84" value="- loadAnimation(String, int) : Animation&amp;lt;TextureRegion&amp;gt;" style="text;strokeColor=none;fillColor=none;align=left;verticalAlign=top;spacingLeft=4;spacingRight=4;overflow=hidden;rotatable=0;points=[[0,0.5],[1,0.5]];portConstraint=eastwest;whiteSpace=wrap;html=1;" vertex="1" parent="J8QxN3xn0YAtA8H0Q5fw-81">
          <mxGeometry y="88" width="430" height="42" as="geometry" />
        </mxCell>
        <mxCell id="J8QxN3xn0YAtA8H0Q5fw-96" style="edgeStyle=orthogonalEdgeStyle;rounded=0;orthogonalLoop=1;jettySize=auto;html=1;exitX=0.25;exitY=0;exitDx=0;exitDy=0;entryX=0.5;entryY=1;entryDx=0;entryDy=0;endArrow=block;endFill=0;" edge="1" parent="1" source="J8QxN3xn0YAtA8H0Q5fw-91" target="J8QxN3xn0YAtA8H0Q5fw-95">
          <mxGeometry relative="1" as="geometry" />
        </mxCell>
        <mxCell id="J8QxN3xn0YAtA8H0Q5fw-91" value="GameView" style="swimlane;fontStyle=1;align=center;verticalAlign=top;childLayout=stackLayout;horizontal=1;startSize=26;horizontalStack=0;resizeParent=1;resizeParentMax=0;resizeLast=0;collapsible=1;marginBottom=0;whiteSpace=wrap;html=1;" vertex="1" parent="1">
          <mxGeometry x="2090" y="690" width="340" height="120" as="geometry" />
        </mxCell>
        <mxCell id="J8QxN3xn0YAtA8H0Q5fw-92" value="- model : ViewableGameModel&lt;div&gt;- bus : EventBus&lt;/div&gt;&lt;div&gt;- processor: InputProcessor&lt;/div&gt;" style="text;strokeColor=none;fillColor=none;align=left;verticalAlign=top;spacingLeft=4;spacingRight=4;overflow=hidden;rotatable=0;points=[[0,0.5],[1,0.5]];portConstraint=eastwest;whiteSpace=wrap;html=1;" vertex="1" parent="J8QxN3xn0YAtA8H0Q5fw-91">
          <mxGeometry y="26" width="340" height="54" as="geometry" />
        </mxCell>
        <mxCell id="J8QxN3xn0YAtA8H0Q5fw-93" value="" style="line;strokeWidth=1;fillColor=none;align=left;verticalAlign=middle;spacingTop=-1;spacingLeft=3;spacingRight=3;rotatable=0;labelPosition=right;points=[];portConstraint=eastwest;strokeColor=inherit;" vertex="1" parent="J8QxN3xn0YAtA8H0Q5fw-91">
          <mxGeometry y="80" width="340" height="8" as="geometry" />
        </mxCell>
        <mxCell id="J8QxN3xn0YAtA8H0Q5fw-94" value="+ new(GameModel, EventBus, InputProcessor): GameView" style="text;strokeColor=none;fillColor=none;align=left;verticalAlign=top;spacingLeft=4;spacingRight=4;overflow=hidden;rotatable=0;points=[[0,0.5],[1,0.5]];portConstraint=eastwest;whiteSpace=wrap;html=1;" vertex="1" parent="J8QxN3xn0YAtA8H0Q5fw-91">
          <mxGeometry y="88" width="340" height="32" as="geometry" />
        </mxCell>
        <mxCell id="J8QxN3xn0YAtA8H0Q5fw-95" value="Game" style="html=1;whiteSpace=wrap;" vertex="1" parent="1">
          <mxGeometry x="2520" y="650" width="110" height="50" as="geometry" />
        </mxCell>
        <mxCell id="J8QxN3xn0YAtA8H0Q5fw-98" style="edgeStyle=orthogonalEdgeStyle;rounded=0;orthogonalLoop=1;jettySize=auto;html=1;exitX=0;exitY=0.5;exitDx=0;exitDy=0;entryX=0.354;entryY=0.976;entryDx=0;entryDy=0;entryPerimeter=0;endArrow=none;endFill=0;startArrow=diamond;startFill=1;" edge="1" parent="1">
          <mxGeometry relative="1" as="geometry">
            <mxPoint x="2090" y="725.64" as="sourcePoint" />
            <mxPoint x="276.20000000000005" y="-309.9999999999999" as="targetPoint" />
          </mxGeometry>
        </mxCell>
        <mxCell id="J8QxN3xn0YAtA8H0Q5fw-99" style="edgeStyle=orthogonalEdgeStyle;rounded=0;orthogonalLoop=1;jettySize=auto;html=1;entryX=0.5;entryY=1;entryDx=0;entryDy=0;endArrow=none;endFill=0;startArrow=diamond;startFill=1;" edge="1" parent="1" source="J8QxN3xn0YAtA8H0Q5fw-92" target="J8QxN3xn0YAtA8H0Q5fw-46">
          <mxGeometry relative="1" as="geometry" />
        </mxCell>
      </root>
    </mxGraphModel>
  </diagram>
</mxfile>
